HIERARCHY
ROOT hip
{
	OFFSET 0.000000 0.000000 0.000000 
	CHANNELS 6 Xposition Yposition Zposition Xrotation Zrotation Yrotation
	JOINT abdomen
	{
		OFFSET 0.000000 3.402643 0.000000 
		CHANNELS 3 Xrotation Zrotation Yrotation
		JOINT chest
		{
			OFFSET 0.000000 8.438565 -0.680529 
			CHANNELS 3 Xrotation Zrotation Yrotation
			JOINT neck
			{
				OFFSET 0.000000 10.207942 -0.272212 
				CHANNELS 3 Xrotation Zrotation Yrotation
				JOINT head
				{
					OFFSET 0.000000 3.130431 0.000000 
					CHANNELS 3 Xrotation Zrotation Yrotation
					End Site
					{
						OFFSET 0.000000 3.130435 0.000000 
					}
				}
			}
			JOINT lCollar
			{
				OFFSET 3.470700 6.669187 -0.816635 
				CHANNELS 3 Yrotation Zrotation Xrotation
				JOINT lShldr
				{
					OFFSET 3.198488 0.000000 0.000000 
					CHANNELS 3 Zrotation Yrotation Xrotation
					JOINT lForeArm
					{
						OFFSET 10.139888 0.000000 0.000000 
						CHANNELS 3 Yrotation Zrotation Xrotation
						JOINT lHand
						{
							OFFSET 8.370511 0.000000 0.000000 
							CHANNELS 3 Zrotation Yrotation Xrotation
							End Site
							{
								OFFSET 4.083176 0.000000 0.000000 
							}
						}
					}
				}
			}
			JOINT rCollar
			{
				OFFSET -3.470700 6.669187 -0.816635 
				CHANNELS 3 Yrotation Zrotation Xrotation
				JOINT rShldr
				{
					OFFSET -3.198488 0.000000 0.000000 
					CHANNELS 3 Zrotation Yrotation Xrotation
					JOINT rForeArm
					{
						OFFSET -10.139888 0.000000 0.000000 
						CHANNELS 3 Yrotation Zrotation Xrotation
						JOINT rHand
						{
							OFFSET -8.370511 0.000000 0.000000 
							CHANNELS 3 Zrotation Yrotation Xrotation
							End Site
							{
								OFFSET -4.083176 0.000000 0.000000 
							}
						}
					}
				}
			}
		}
	}
	JOINT lThigh
	{
		OFFSET 5.308129 -1.633274 1.361059 
		CHANNELS 3 Xrotation Zrotation Yrotation
		JOINT lShin
		{
			OFFSET -2.041588 -20.007561 0.000000 
			CHANNELS 3 Xrotation Zrotation Yrotation
			JOINT lFoot
			{
				OFFSET 0.000000 -19.190928 -1.224953 
				CHANNELS 3 Xrotation Yrotation Zrotation
				End Site
				{
					OFFSET 0.000000 -2.449906 4.627600 
				}
			}
		}
	}
	JOINT rThigh
	{
		OFFSET -5.308129 -1.633274 1.361059 
		CHANNELS 3 Xrotation Zrotation Yrotation
		JOINT rShin
		{
			OFFSET 2.041588 -20.007561 0.000000 
			CHANNELS 3 Xrotation Zrotation Yrotation
			JOINT rFoot
			{
				OFFSET 0.000000 -19.190928 -1.224953 
				CHANNELS 3 Xrotation Yrotation Zrotation
				End Site
				{
					OFFSET 0.000000 -2.449906 4.627600 
				}
			}
		}
	}
}
MOTION
Frames: 9
Frame Time: 0.033333
2.229220 42.701786 3.363828 -2.340099 -5.375886 -77.645775 0.000000 0.000000 0.000000 12.807315 -8.605206 -21.504677 -25.917425 9.264884 11.847672 12.887952 0.958591 15.773794 -3.521967 9.154817 6.304141 -73.528229 -14.756998 -21.652527 -6.411072 -1.395708 53.817024 11.119889 -3.732358 -9.056920 3.089181 -14.089146 8.026228 89.334801 -5.456559 19.712954 41.954166 -17.381229 -7.007169 3.261681 1.695940 -7.550704 -32.134563 25.619825 14.014316 52.973415 -5.981381 -32.594433 -2.896632 -0.871468 10.293590 17.552586 -30.221254 -29.594664 26.790529 -4.594041 16.350698 -27.680365 4.860656 -16.435890 
2.249338 42.718285 3.309417 -2.165189 -5.414920 -77.716133 0.000000 0.000000 0.000000 13.191401 -8.565145 -20.928055 -26.608803 9.473927 11.606956 13.119044 0.846019 15.724503 -3.521967 9.154817 6.304141 -73.200447 -15.246461 -21.819088 -6.328367 -1.576465 55.255703 9.511254 -3.276773 -8.819306 3.089181 -14.089146 8.026228 91.052757 -4.442680 19.394348 38.422802 -20.455011 -0.892650 6.126562 2.931668 -7.075839 -32.241394 25.736284 13.861792 52.891071 -5.856444 -32.613762 -2.692614 -0.853823 10.063611 17.456877 -29.997299 -29.394867 26.758581 -4.607211 16.347683 -27.641781 4.862042 -16.433979 
2.272051 42.720230 3.268208 -1.995420 -5.454997 -77.883354 0.000000 0.000000 0.000000 13.496566 -8.531230 -20.383228 -27.015102 9.548783 11.371098 13.005665 0.903067 15.578190 -3.521967 9.154817 6.304141 -72.771347 -15.746965 -21.582403 -6.169755 -1.889781 57.452934 10.454471 -3.677317 -8.956123 3.089181 -14.089146 8.026228 91.178917 -4.094990 19.744177 38.254417 -20.427023 -1.661810 5.174117 3.428113 -7.143171 -32.320389 25.913162 13.759094 52.908855 -5.747786 -32.487274 -2.650169 -0.837312 9.963847 17.264091 -29.843740 -29.151325 26.776215 -4.620933 16.345081 -27.413294 4.817903 -16.369104 
2.256795 42.707870 3.265089 -2.146635 -5.597959 -77.700752 0.000000 0.000000 0.000000 14.158594 -8.469812 -20.329227 -27.565353 9.670853 11.157764 13.016887 0.489255 15.537697 -3.521967 9.154817 6.304141 -72.535599 -16.274540 -21.447720 -6.105107 -2.013790 58.288773 10.357491 -4.522945 -8.961051 3.089181 -14.089146 8.026228 91.152023 -3.651769 19.569384 38.502682 -20.124752 -1.646465 5.056936 4.128572 -7.081904 -32.281971 25.689411 13.614001 52.941914 -5.640756 -32.538162 -2.350181 -0.787088 9.681684 17.671003 -29.968182 -29.516413 26.740786 -4.515469 16.464855 -27.521513 4.844802 -16.455252 
2.224003 42.694504 3.250269 -2.176306 -5.608520 -77.716293 0.000000 0.000000 0.000000 14.532493 -8.223663 -20.119226 -28.287550 9.469332 11.160874 13.339394 0.564845 15.420692 -3.521967 9.154817 6.304141 -72.533607 -16.693192 -21.774654 -6.094173 -2.032829 58.971268 9.925100 -5.542910 -8.920101 3.089181 -14.089146 8.026228 91.188904 -3.077017 19.481417 38.582954 -20.012733 -1.139041 5.174310 4.865686 -6.982284 -32.284176 25.633574 13.530681 52.982185 -5.559824 -32.658321 -2.379167 -0.781524 9.632071 17.672092 -29.968946 -29.496376 26.823202 -4.576107 16.354904 -27.716185 4.905309 -16.474548 
2.177626 42.685905 3.232676 -2.179754 -5.422984 -77.633682 0.000000 0.000000 0.000000 14.505450 -8.202248 -19.999210 -28.263275 9.589713 10.995626 13.112365 0.273021 15.410348 -3.521967 9.154817 6.304141 -72.404907 -16.853771 -22.036402 -5.975271 -2.200571 60.140545 9.213961 -6.515784 -8.827232 3.089181 -14.089146 8.026228 91.217995 -3.053353 19.285206 38.648865 -19.845507 -1.336391 4.318012 4.169095 -7.181683 -32.497551 25.534142 13.359960 53.025711 -5.525614 -32.567924 -2.409153 -0.791045 9.681635 17.551304 -29.868486 -29.324387 26.877340 -4.671544 16.041716 -27.989576 4.939984 -16.488049 
2.116980 42.683762 3.229712 -2.369404 -5.158761 -77.343208 0.000000 0.000000 0.000000 14.327801 -8.347877 -20.204889 -28.033171 9.375397 11.098294 12.920952 0.395559 15.332467 -3.521967 9.154817 6.304141 -72.177635 -16.858780 -22.449711 -5.832535 -2.418648 61.015499 8.910981 -7.142221 -8.783870 3.089181 -14.089146 8.026228 91.715462 -2.661834 19.294401 38.040195 -20.258436 -0.993220 5.566051 4.099291 -7.015539 -32.721569 25.250298 13.308889 52.886429 -5.568606 -32.499866 -1.939764 -0.714093 9.164447 17.651693 -29.987764 -29.527006 26.806698 -4.543569 15.884601 -28.142303 4.953754 -16.435764 
2.034573 42.690529 3.181525 -2.495775 -4.925568 -77.209930 0.000000 0.000000 0.000000 14.085934 -8.551094 -20.186026 -27.586576 9.027083 11.196431 12.601382 0.735256 15.147839 -3.521967 9.154817 6.304141 -71.991356 -16.833307 -23.123655 -5.750398 -2.484407 61.427628 8.792596 -7.738762 -8.768149 3.089181 -14.089146 8.026228 92.481613 -2.487415 19.207529 37.107998 -21.008049 -0.057888 5.379540 4.087164 -7.037469 -32.837299 25.219240 13.498947 52.551880 -5.611086 -32.419224 -0.740047 -0.557314 7.804012 17.561438 -29.927475 -29.381691 26.802168 -4.673000 15.643743 -28.032856 4.872509 -16.351450 
1.919874 42.684139 3.102866 -2.520070 -4.671698 -76.877014 0.000000 0.000000 0.000000 13.946757 -8.499952 -20.282448 -27.515759 8.360678 11.363445 12.436075 1.161238 14.817672 -3.521967 9.154817 6.304141 -71.857018 -16.813988 -24.075722 -5.651480 -2.561991 62.191120 9.018817 -7.782448 -8.808970 3.089181 -14.089146 8.026228 92.857117 -2.704573 18.286982 37.290882 -20.753117 0.509456 5.598734 4.239234 -6.988563 -33.024483 25.182175 13.437500 52.452171 -5.680485 -32.335537 -0.700214 -0.538056 7.883842 17.518585 -29.599884 -29.005768 26.903004 -4.899136 15.020816 -28.432394 4.935618 -16.289988 
